<svg width="37" height="43" viewBox="0 0 37 43" fill="none" xmlns="http://www.w3.org/2000/svg">
<path fill-rule="evenodd" clip-rule="evenodd" d="M2.42723 9.16505L9.23915 5.28155L18.4783 0L27.7174 5.28155L36.9566 10.5631V16.699L31.5932 13.6311L18.4783 6.09709L7.79064 12.233L2.42723 9.16505ZM0 13.3204V19.6116L18.7915 30.3689L24.0374 27.068L0 13.3204Z" fill="#4878A6"/>
<path fill-rule="evenodd" clip-rule="evenodd" d="M34.5294 33.0869L27.7174 36.9703L18.4783 42.2519L9.23915 36.9703L0 31.6888V25.5529L5.3634 28.6208L18.4783 36.116L29.166 29.9801L34.5294 33.0869ZM22.9804 14.6014L18.5957 12.0771L13.4281 15.0286L16.7166 16.9315L35.5081 27.6888L36.9957 28.5432V22.6014L35.5081 21.7471L22.9804 14.6014Z" fill="#2A5275"/>
</svg>
