<svg width="24" height="24" viewBox="0 0 24 24" fill="none" xmlns="http://www.w3.org/2000/svg">
<path d="M12.0029 1.16797C12.1952 1.16797 12.3806 1.23507 12.5283 1.35547L12.5898 1.41016L22.583 11.417L22.5928 11.4258H22.5918C22.728 11.5848 22.799 11.7898 22.791 11.999C22.7829 12.2083 22.6969 12.4075 22.5488 12.5557C22.4007 12.7038 22.2015 12.7898 21.9922 12.7979C21.783 12.8059 21.578 12.7348 21.4189 12.5986L21.4092 12.5908L21.4102 12.5898L11.999 3.17285L2.58984 12.584L2.58105 12.5928L2.58008 12.5918C2.42105 12.7279 2.21698 12.8 2.00781 12.792C1.7985 12.7839 1.59929 12.6969 1.45117 12.5488C1.30312 12.4007 1.21707 12.2014 1.20898 11.9922C1.20101 11.7831 1.27212 11.5789 1.4082 11.4199L1.41602 11.4102L1.5332 11.5273L1.41699 11.4102L11.417 1.41016L11.4775 1.35547C11.6252 1.2349 11.8106 1.16807 12.0029 1.16797Z" fill="#BFCBD6" stroke="#BFCBD6" stroke-width="0.33"/>
<path d="M18.502 13.4492C18.502 12.7083 19.398 12.3374 19.9219 12.8613C20.0776 13.0172 20.165 13.2288 20.165 13.4492V21.333C20.165 21.7303 20.0074 22.1116 19.7266 22.3926C19.4456 22.6735 19.0643 22.831 18.667 22.8311H15C14.3567 22.8311 13.8352 22.3102 13.835 21.667V17C13.835 16.5388 13.4612 16.165 13 16.165H11C10.5388 16.165 10.165 16.5388 10.165 17V21.667C10.1648 22.3102 9.64325 22.8311 9 22.8311H5.33301C4.93574 22.831 4.55435 22.6735 4.27344 22.3926C3.9926 22.1116 3.83496 21.7303 3.83496 21.333V13.6094C3.83496 13.389 3.92238 13.1774 4.07812 13.0215C4.60204 12.4976 5.49805 12.8684 5.49805 13.6094V21.168H7.66699C8.128 21.1678 8.50195 20.7941 8.50195 20.333V15.667C8.50195 15.0236 9.02358 14.502 9.66699 14.502H14.333C14.9764 14.502 15.498 15.0236 15.498 15.667V20.333C15.498 20.7941 15.872 21.1678 16.333 21.168H18.502V13.4492Z" fill="#BFCBD6" stroke="#BFCBD6" stroke-width="0.33"/>
</svg>
