<svg width="32" height="32" viewBox="0 0 32 32" fill="none" xmlns="http://www.w3.org/2000/svg">
<path d="M16.0039 2.80078C22.8536 2.80079 28.4062 8.3534 28.4062 15.2031V21.0439C28.4062 21.6184 27.9407 22.085 27.3662 22.085H26.9658V16.0488C26.9658 9.55187 22.5231 4.24122 16.0039 4.24121C9.48467 4.24121 5.04199 9.55187 5.04199 16.0488V22.085H4.6416C4.06711 22.085 3.60156 21.6184 3.60156 21.0439V15.2031C3.60156 8.3534 9.15418 2.80078 16.0039 2.80078Z" fill="#4878A6" stroke="#0E1821" stroke-width="0.480098"/>
<path d="M6.48145 17.6807H8.08105V25.8408H6.48145C5.59763 25.8408 4.88089 25.124 4.88086 24.2402V19.2812C4.88086 18.3974 5.59761 17.6807 6.48145 17.6807Z" fill="#4878A6" stroke="#0E1821" stroke-width="0.480098"/>
<path d="M25.5186 17.6807H23.9189V25.8408H25.5186C26.4024 25.8408 27.1191 25.124 27.1191 24.2402V19.2812C27.1191 18.3974 26.4024 17.6807 25.5186 17.6807Z" fill="#4878A6" stroke="#0E1821" stroke-width="0.480098"/>
<rect x="7.12091" y="16.0799" width="4.31997" height="11.3601" rx="2.15998" fill="#2A5275" stroke="#0E1821" stroke-width="0.480098"/>
<rect x="-0.240049" y="0.240049" width="4.31997" height="11.3601" rx="2.15998" transform="matrix(-1 0 0 1 24.641 15.8398)" fill="#2A5275" stroke="#0E1821" stroke-width="0.480098"/>
</svg>
