<svg width="32" height="32" viewBox="0 0 32 32" fill="none" xmlns="http://www.w3.org/2000/svg">
<path d="M24.6902 23.2162H16.5293V20.6937H20.6925C21.7531 20.6937 22.6129 19.8339 22.6129 18.7733V9.12012H24.6902V23.2162Z" fill="#4878A6" stroke="#0E1821" stroke-width="0.480098" stroke-linecap="round" stroke-linejoin="round"/>
<path d="M30.8407 20.6792C30.1957 16.9073 26.5364 15.8942 24.6895 15.8711V21.3611H30.2359C30.6067 21.3611 30.9032 21.0447 30.8407 20.6792Z" fill="#4878A6" stroke="#0E1821" stroke-width="0.480098" stroke-linecap="round" stroke-linejoin="round"/>
<path d="M12.9676 23.8842C12.9676 26.0968 11.1739 27.8904 8.96133 27.8904C6.74874 27.8904 4.95508 26.0968 4.95508 23.8842C4.95508 21.6716 6.74874 19.8779 8.96133 19.8779C11.1739 19.8779 12.9676 21.6716 12.9676 23.8842ZM6.88814 23.8842C6.88814 25.0292 7.81634 25.9574 8.96133 25.9574C10.1063 25.9574 11.0345 25.0292 11.0345 23.8842C11.0345 22.7392 10.1063 21.811 8.96133 21.811C7.81634 21.811 6.88814 22.7392 6.88814 23.8842Z" fill="#0E1821"/>
<circle cx="8.96202" cy="23.8839" r="1.98565" fill="white" stroke="#0E1821" stroke-width="0.480098"/>
<circle cx="8.96133" cy="23.8842" r="3.7662" stroke="#0E1821" stroke-width="0.480098"/>
<path d="M30.7742 23.8842C30.7742 26.0968 28.9806 27.8904 26.768 27.8904C24.5554 27.8904 22.7617 26.0968 22.7617 23.8842C22.7617 21.6716 24.5554 19.8779 26.768 19.8779C28.9806 19.8779 30.7742 21.6716 30.7742 23.8842ZM24.6948 23.8842C24.6948 25.0292 25.623 25.9574 26.768 25.9574C27.913 25.9574 28.8412 25.0292 28.8412 23.8842C28.8412 22.7392 27.913 21.811 26.768 21.811C25.623 21.811 24.6948 22.7392 24.6948 23.8842Z" fill="#0E1821"/>
<circle cx="26.7667" cy="23.8839" r="1.98565" fill="white" stroke="#0E1821" stroke-width="0.480098"/>
<circle cx="26.768" cy="23.8842" r="3.7662" stroke="#0E1821" stroke-width="0.480098"/>
<line x1="1.04083" y1="27.6496" x2="31.1269" y2="27.6496" stroke="#0E1821" stroke-width="0.480098" stroke-linecap="round"/>
<circle cx="2.28458" cy="16.9096" r="1.24375" fill="#FBB13C" stroke="#0E1821" stroke-width="0.480098"/>
<path d="M7.34961 13.7373H16.5859V23.1982H2.78809C2.47902 23.198 2.22869 22.9477 2.22852 22.6387V18.8584C2.22852 16.0301 4.52134 13.7373 7.34961 13.7373Z" fill="#2A5275" stroke="#0E1821" stroke-width="0.480098"/>
<path d="M6.51172 18.04H13.2959C14.047 18.0402 14.6562 18.6492 14.6562 19.4004V23.1982H3.71094V20.8408C3.71094 19.2941 4.96501 18.04 6.51172 18.04Z" fill="#4878A6" stroke="#0E1821" stroke-width="0.480098"/>
<path d="M4.50879 11.5117H16.2314C16.8362 11.5118 17.3259 12.0018 17.3262 12.6064C17.3262 13.2113 16.8363 13.702 16.2314 13.7021H4.50879C3.90404 13.7019 3.41406 13.2112 3.41406 12.6064C3.41431 12.0019 3.9042 11.512 4.50879 11.5117Z" fill="#F15152" stroke="#0E1821" stroke-width="0.480098"/>
<path d="M22.6123 4.24121H26.2285C26.803 4.24121 27.2686 4.70676 27.2686 5.28125V8.0625C27.2685 8.63694 26.803 9.10254 26.2285 9.10254H22.6123C21.2698 9.10254 20.1817 8.01433 20.1816 6.67188C20.1816 5.32939 21.2698 4.24121 22.6123 4.24121Z" fill="#4878A6" stroke="#0E1821" stroke-width="0.480098"/>
<rect x="17.3611" y="6.0213" width="6.49375" height="1.7456" rx="0.872799" fill="#2A5275" stroke="#0E1821" stroke-width="0.480098"/>
<path d="M28.8842 4.98214L27.2879 5.54753L27.2821 7.87713L28.8928 8.14109L28.8842 4.98214Z" fill="#4878A6" stroke="#0E1821" stroke-width="0.480098" stroke-linecap="round" stroke-linejoin="round"/>
<circle cx="29.0595" cy="6.66536" r="0.964468" transform="rotate(9.30666 29.0595 6.66536)" fill="#FBB13C" stroke="#0E1821" stroke-width="0.480098"/>
</svg>
