<svg width="32" height="32" viewBox="0 0 32 32" fill="none" xmlns="http://www.w3.org/2000/svg">
<rect x="2.32013" y="24.4051" width="27.6856" height="2.56052" rx="1.28026" fill="#2A5275" stroke="#0E1821" stroke-width="0.480098"/>
<path d="M9.8418 26.9658V29.7666C9.84158 30.2525 9.44691 30.6465 8.96094 30.6465H5.44043C4.9545 30.6464 4.56076 30.2525 4.56055 29.7666V26.9658H9.8418Z" fill="#0E1821" stroke="#0E1821" stroke-width="0.480098"/>
<path d="M27.7656 26.9658V29.7666C27.7654 30.2525 27.3707 30.6465 26.8848 30.6465H23.3643C22.8783 30.6464 22.4846 30.2525 22.4844 29.7666V26.9658H27.7656Z" fill="#0E1821" stroke="#0E1821" stroke-width="0.480098"/>
<path d="M6.24121 16.084H26.085C27.8968 16.084 29.3661 17.5525 29.3662 19.3643V22.8848C29.3662 23.7244 28.6853 24.4053 27.8457 24.4053H4.48145C3.6418 24.4053 2.96094 23.7244 2.96094 22.8848V19.3643C2.96105 17.5526 4.42951 16.0841 6.24121 16.084Z" fill="#4878A6" stroke="#0E1821" stroke-width="0.480098"/>
<path d="M22.233 8.32129H10.0942C8.66474 8.32129 7.40861 9.26912 7.01637 10.6437L5.44141 16.1629H26.8858L25.3108 10.6437C24.9186 9.26912 23.6624 8.32129 22.233 8.32129Z" fill="#4878A6" stroke="#0E1821" stroke-width="0.480098" stroke-linecap="round" stroke-linejoin="round"/>
<path d="M22.8626 10.1621H9.46301C9.1162 10.1621 8.80887 10.3855 8.70188 10.7154L6.96094 16.0833H25.3647L23.6237 10.7154C23.5167 10.3855 23.2094 10.1621 22.8626 10.1621Z" fill="white" stroke="#0E1821" stroke-width="0.480098" stroke-linecap="round" stroke-linejoin="round"/>
<path d="M6.30012 13.283H5.60055C3.47934 13.283 1.75977 11.5634 1.75977 9.44219V6.72164C1.75977 4.60044 3.47934 2.88086 5.60055 2.88086H24.4844" stroke="#0E1821" stroke-width="0.480098"/>
<path d="M25.2051 3.60059L24.4854 3.60059C24.3528 3.60059 24.2452 3.49286 24.2451 3.36035L24.2451 2.40039C24.2451 2.26782 24.3528 2.16016 24.4854 2.16016L25.2051 2.16016L25.2051 3.60059Z" fill="#F15152" stroke="#0E1821" stroke-width="0.480098"/>
<path d="M27.4453 4.40039L25.4453 4.40039C25.3129 4.40039 25.2053 4.29352 25.2051 4.16113L25.2051 1.60059C25.2051 1.46801 25.3127 1.36035 25.4453 1.36035L27.4453 1.36035L27.4453 4.40039Z" fill="#F15152" stroke="#0E1821" stroke-width="0.480098"/>
<line x1="27.7654" y1="2.00019" x2="28.7256" y2="2.00019" stroke="#0E1821" stroke-width="0.480098" stroke-linecap="round"/>
<line x1="27.7654" y1="3.76093" x2="28.7256" y2="3.76093" stroke="#0E1821" stroke-width="0.480098" stroke-linecap="round"/>
<circle cx="7.12113" cy="20.7237" r="2.24046" fill="#FBB13C" stroke="#0E1821" stroke-width="0.480098"/>
<circle cx="25.2051" cy="20.7237" r="2.24046" fill="#FBB13C" stroke="#0E1821" stroke-width="0.480098"/>
<path d="M15.2896 17.7292C15.3003 17.6929 15.3226 17.661 15.3531 17.6384C15.3835 17.6157 15.4206 17.6035 15.4586 17.6035H16.8668C16.8947 17.6035 16.9221 17.6101 16.9469 17.6228C16.9718 17.6354 16.9932 17.6537 17.0095 17.6762C17.0258 17.6987 17.0365 17.7247 17.0407 17.7521C17.0449 17.7795 17.0425 17.8076 17.0337 17.8338L16.407 19.7038H17.7469C17.7799 19.7038 17.8122 19.713 17.8402 19.7303C17.8681 19.7477 17.8906 19.7725 17.9051 19.8019C17.9196 19.8313 17.9255 19.8642 17.9221 19.8968C17.9187 19.9294 17.9062 19.9604 17.886 19.9863L15.4216 23.1368C15.3964 23.1692 15.3605 23.1918 15.3202 23.2006C15.2799 23.2094 15.2378 23.2038 15.2012 23.1849C15.1646 23.166 15.1359 23.1349 15.12 23.097C15.1041 23.0592 15.1021 23.017 15.1143 22.9778L15.7483 20.929H14.5785C14.5511 20.929 14.5241 20.9227 14.4996 20.9105C14.4752 20.8983 14.4539 20.8807 14.4375 20.8589C14.4211 20.8371 14.41 20.8118 14.4051 20.785C14.4003 20.7583 14.4018 20.7307 14.4095 20.7046L15.2896 17.7292ZM15.5903 17.9536L14.8136 20.5789H15.9867C16.0142 20.5789 16.0414 20.5854 16.066 20.5977C16.0906 20.61 16.1119 20.6279 16.1283 20.65C16.1446 20.672 16.1556 20.6975 16.1602 20.7245C16.1649 20.7515 16.163 20.7792 16.1549 20.8054L15.7332 22.1682L17.3871 20.0539H16.1627C16.1348 20.0538 16.1073 20.0472 16.0825 20.0346C16.0577 20.022 16.0363 20.0036 16.02 19.9811C16.0037 19.9587 15.993 19.9326 15.9888 19.9052C15.9846 19.8778 15.987 19.8498 15.9958 19.8235L16.6225 17.9536H15.5903Z" fill="white"/>
</svg>
